<?xml version="1.0" encoding="UTF-8" standalone="no"?><svg xmlns="http://www.w3.org/2000/svg" xmlns:xlink="http://www.w3.org/1999/xlink" contentStyleType="text/css" height="1052px" preserveAspectRatio="none" style="width:2549px;height:1052px;background:#FFFFFF;" version="1.1" viewBox="0 0 2549 1052" width="2549px" zoomAndPan="magnify"><defs/><g><!--class MilitaryRecruitmentDbContext--><g id="elem_MilitaryRecruitmentDbContext"><rect codeLine="8" fill="#F1F1F1" height="118.4375" id="MilitaryRecruitmentDbContext" rx="2.5" ry="2.5" style="stroke:#181818;stroke-width:0.5;" width="583" x="1387" y="927"/><ellipse cx="1581.25" cy="943" fill="#ADD1B2" rx="11" ry="11" style="stroke:#181818;stroke-width:1.0;"/><path d="M1584.0156,938.875 Q1584.1719,938.6563 1584.3594,938.5469 Q1584.5469,938.4375 1584.7656,938.4375 Q1585.1406,938.4375 1585.375,938.7031 Q1585.6094,938.9531 1585.6094,939.5625 L1585.6094,941.0156 Q1585.6094,941.625 1585.375,941.8906 Q1585.1406,942.1563 1584.7656,942.1563 Q1584.4219,942.1563 1584.2188,941.9531 Q1584.0156,941.7656 1583.9063,941.25 Q1583.8594,940.8906 1583.6719,940.7031 Q1583.3438,940.3281 1582.7344,940.1094 Q1582.125,939.8906 1581.5,939.8906 Q1580.7344,939.8906 1580.0938,940.2188 Q1579.4688,940.5469 1578.9688,941.2969 Q1578.4844,942.0469 1578.4844,943.0781 L1578.4844,944.1719 Q1578.4844,945.4063 1579.375,946.2344 Q1580.2656,947.0469 1581.8594,947.0469 Q1582.7969,947.0469 1583.4531,946.7969 Q1583.8438,946.6406 1584.2656,946.2031 Q1584.5313,945.9375 1584.6719,945.8594 Q1584.8281,945.7813 1585.0313,945.7813 Q1585.3594,945.7813 1585.6094,946.0469 Q1585.875,946.2969 1585.875,946.6406 Q1585.875,946.9844 1585.5313,947.3906 Q1585.0313,947.9688 1584.2344,948.2969 Q1583.1563,948.75 1581.8594,948.75 Q1580.3438,948.75 1579.1406,948.125 Q1578.1563,947.625 1577.4688,946.5625 Q1576.7813,945.4844 1576.7813,944.2031 L1576.7813,943.0469 Q1576.7813,941.7188 1577.3906,940.5781 Q1578.0156,939.4219 1579.1094,938.8125 Q1580.2031,938.1875 1581.4375,938.1875 Q1582.1719,938.1875 1582.8125,938.3594 Q1583.4688,938.5156 1584.0156,938.875 Z " fill="#000000"/><text fill="#000000" font-family="sans-serif" font-size="14" lengthAdjust="spacing" textLength="186" x="1601.75" y="948.7285">MilitaryRecruitmentDbContext</text><line style="stroke:#181818;stroke-width:0.5;" x1="1388" x2="1969" y1="959" y2="959"/><text fill="#000000" font-family="sans-serif" font-size="14" lengthAdjust="spacing" textLength="273" x="1393" y="977.5332">+Vacancies : DbSet&lt;Vacancy&gt; «get» «set»</text><text fill="#000000" font-family="sans-serif" font-size="14" lengthAdjust="spacing" textLength="291" x="1393" y="995.1426">+Candidates : DbSet&lt;Candidate&gt; «get» «set»</text><text fill="#000000" font-family="sans-serif" font-size="14" lengthAdjust="spacing" textLength="299" x="1393" y="1012.752">+Applications : DbSet&lt;Application&gt; «get» «set»</text><line style="stroke:#181818;stroke-width:0.5;" x1="1388" x2="1969" y1="1019.8281" y2="1019.8281"/><text fill="#000000" font-family="sans-serif" font-size="14" lengthAdjust="spacing" textLength="571" x="1393" y="1038.3613">+MilitaryRecruitmentDbContext(options:DbContextOptions&lt;MilitaryRecruitmentDbContext&gt;)</text></g><!--class ApplicationRepository--><g id="elem_ApplicationRepository"><rect codeLine="18" fill="#F1F1F1" height="224.0938" id="ApplicationRepository" rx="2.5" ry="2.5" style="stroke:#181818;stroke-width:0.5;" width="955" x="337" y="653"/><ellipse cx="741.75" cy="669" fill="#ADD1B2" rx="11" ry="11" style="stroke:#181818;stroke-width:1.0;"/><path d="M744.5156,664.875 Q744.6719,664.6563 744.8594,664.5469 Q745.0469,664.4375 745.2656,664.4375 Q745.6406,664.4375 745.875,664.7031 Q746.1094,664.9531 746.1094,665.5625 L746.1094,667.0156 Q746.1094,667.625 745.875,667.8906 Q745.6406,668.1563 745.2656,668.1563 Q744.9219,668.1563 744.7188,667.9531 Q744.5156,667.7656 744.4063,667.25 Q744.3594,666.8906 744.1719,666.7031 Q743.8438,666.3281 743.2344,666.1094 Q742.625,665.8906 742,665.8906 Q741.2344,665.8906 740.5938,666.2188 Q739.9688,666.5469 739.4688,667.2969 Q738.9844,668.0469 738.9844,669.0781 L738.9844,670.1719 Q738.9844,671.4063 739.875,672.2344 Q740.7656,673.0469 742.3594,673.0469 Q743.2969,673.0469 743.9531,672.7969 Q744.3438,672.6406 744.7656,672.2031 Q745.0313,671.9375 745.1719,671.8594 Q745.3281,671.7813 745.5313,671.7813 Q745.8594,671.7813 746.1094,672.0469 Q746.375,672.2969 746.375,672.6406 Q746.375,672.9844 746.0313,673.3906 Q745.5313,673.9688 744.7344,674.2969 Q743.6563,674.75 742.3594,674.75 Q740.8438,674.75 739.6406,674.125 Q738.6563,673.625 737.9688,672.5625 Q737.2813,671.4844 737.2813,670.2031 L737.2813,669.0469 Q737.2813,667.7188 737.8906,666.5781 Q738.5156,665.4219 739.6094,664.8125 Q740.7031,664.1875 741.9375,664.1875 Q742.6719,664.1875 743.3125,664.3594 Q743.9688,664.5156 744.5156,664.875 Z " fill="#000000"/><text fill="#000000" font-family="sans-serif" font-size="14" lengthAdjust="spacing" textLength="137" x="762.25" y="674.7285">ApplicationRepository</text><line style="stroke:#181818;stroke-width:0.5;" x1="338" x2="1291" y1="685" y2="685"/><line style="stroke:#181818;stroke-width:0.5;" x1="338" x2="1291" y1="693" y2="693"/><text fill="#000000" font-family="sans-serif" font-size="14" lengthAdjust="spacing" textLength="390" x="343" y="711.5332">+ApplicationRepository(context:MilitaryRecruitmentDbContext)</text><text fill="#000000" font-family="sans-serif" font-size="14" lengthAdjust="spacing" textLength="222" x="343" y="729.1426">+Add(application:Application) : void</text><text fill="#000000" font-family="sans-serif" font-size="14" lengthAdjust="spacing" textLength="242" x="343" y="746.752">+Update(application:Application) : void</text><text fill="#000000" font-family="sans-serif" font-size="14" lengthAdjust="spacing" textLength="238" x="343" y="764.3613">+Delete(application:Application) : void</text><text fill="#000000" font-family="sans-serif" font-size="14" lengthAdjust="spacing" textLength="194" x="343" y="781.9707">+GetById(id:Guid) : Application</text><text fill="#000000" font-family="sans-serif" font-size="14" lengthAdjust="spacing" textLength="232" x="343" y="799.5801">+GetAll() : IEnumerable&lt;Application&gt;</text><text fill="#000000" font-family="sans-serif" font-size="14" lengthAdjust="spacing" textLength="416" x="343" y="817.1895">+GetByCandidateId(candidateId:Guid) : IEnumerable&lt;Application&gt;</text><text fill="#000000" font-family="sans-serif" font-size="14" lengthAdjust="spacing" textLength="395" x="343" y="834.7988">+GetByVacancyId(vacancyId:Guid) : IEnumerable&lt;Application&gt;</text><text fill="#000000" font-family="sans-serif" font-size="14" lengthAdjust="spacing" textLength="611" x="343" y="852.4082">+GetByCandidateIdAndVacancyId(candidateId:Guid, vacancyId:Guid) : IEnumerable&lt;Application&gt;</text><text fill="#000000" font-family="sans-serif" font-size="14" lengthAdjust="spacing" textLength="943" x="343" y="870.0176">+GetByCandidateIdAndVacancyIdAndIsChosenByAlgorithm(candidateId:Guid, vacancyId:Guid, isChosenByAlgorithm:bool) : IEnumerable&lt;Application&gt;</text></g><!--class CandidateRepository--><g id="elem_CandidateRepository"><rect codeLine="31" fill="#F1F1F1" height="153.6563" id="CandidateRepository" rx="2.5" ry="2.5" style="stroke:#181818;stroke-width:0.5;" width="398" x="1479.5" y="688"/><ellipse cx="1607.75" cy="704" fill="#ADD1B2" rx="11" ry="11" style="stroke:#181818;stroke-width:1.0;"/><path d="M1610.5156,699.875 Q1610.6719,699.6563 1610.8594,699.5469 Q1611.0469,699.4375 1611.2656,699.4375 Q1611.6406,699.4375 1611.875,699.7031 Q1612.1094,699.9531 1612.1094,700.5625 L1612.1094,702.0156 Q1612.1094,702.625 1611.875,702.8906 Q1611.6406,703.1563 1611.2656,703.1563 Q1610.9219,703.1563 1610.7188,702.9531 Q1610.5156,702.7656 1610.4063,702.25 Q1610.3594,701.8906 1610.1719,701.7031 Q1609.8438,701.3281 1609.2344,701.1094 Q1608.625,700.8906 1608,700.8906 Q1607.2344,700.8906 1606.5938,701.2188 Q1605.9688,701.5469 1605.4688,702.2969 Q1604.9844,703.0469 1604.9844,704.0781 L1604.9844,705.1719 Q1604.9844,706.4063 1605.875,707.2344 Q1606.7656,708.0469 1608.3594,708.0469 Q1609.2969,708.0469 1609.9531,707.7969 Q1610.3438,707.6406 1610.7656,707.2031 Q1611.0313,706.9375 1611.1719,706.8594 Q1611.3281,706.7813 1611.5313,706.7813 Q1611.8594,706.7813 1612.1094,707.0469 Q1612.375,707.2969 1612.375,707.6406 Q1612.375,707.9844 1612.0313,708.3906 Q1611.5313,708.9688 1610.7344,709.2969 Q1609.6563,709.75 1608.3594,709.75 Q1606.8438,709.75 1605.6406,709.125 Q1604.6563,708.625 1603.9688,707.5625 Q1603.2813,706.4844 1603.2813,705.2031 L1603.2813,704.0469 Q1603.2813,702.7188 1603.8906,701.5781 Q1604.5156,700.4219 1605.6094,699.8125 Q1606.7031,699.1875 1607.9375,699.1875 Q1608.6719,699.1875 1609.3125,699.3594 Q1609.9688,699.5156 1610.5156,699.875 Z " fill="#000000"/><text fill="#000000" font-family="sans-serif" font-size="14" lengthAdjust="spacing" textLength="133" x="1628.25" y="709.7285">CandidateRepository</text><line style="stroke:#181818;stroke-width:0.5;" x1="1480.5" x2="1876.5" y1="720" y2="720"/><line style="stroke:#181818;stroke-width:0.5;" x1="1480.5" x2="1876.5" y1="728" y2="728"/><text fill="#000000" font-family="sans-serif" font-size="14" lengthAdjust="spacing" textLength="386" x="1485.5" y="746.5332">+CandidateRepository(context:MilitaryRecruitmentDbContext)</text><text fill="#000000" font-family="sans-serif" font-size="14" lengthAdjust="spacing" textLength="212" x="1485.5" y="764.1426">+Add(candidate:Candidate) : void</text><text fill="#000000" font-family="sans-serif" font-size="14" lengthAdjust="spacing" textLength="232" x="1485.5" y="781.752">+Update(candidate:Candidate) : void</text><text fill="#000000" font-family="sans-serif" font-size="14" lengthAdjust="spacing" textLength="228" x="1485.5" y="799.3613">+Delete(candidate:Candidate) : void</text><text fill="#000000" font-family="sans-serif" font-size="14" lengthAdjust="spacing" textLength="190" x="1485.5" y="816.9707">+GetById(id:Guid) : Candidate</text><text fill="#000000" font-family="sans-serif" font-size="14" lengthAdjust="spacing" textLength="228" x="1485.5" y="834.5801">+GetAll() : IEnumerable&lt;Candidate&gt;</text></g><!--class VacancyRepository--><g id="elem_VacancyRepository"><rect codeLine="40" fill="#F1F1F1" height="153.6563" id="VacancyRepository" rx="2.5" ry="2.5" style="stroke:#181818;stroke-width:0.5;" width="387" x="2005" y="688"/><ellipse cx="2133.25" cy="704" fill="#ADD1B2" rx="11" ry="11" style="stroke:#181818;stroke-width:1.0;"/><path d="M2136.0156,699.875 Q2136.1719,699.6563 2136.3594,699.5469 Q2136.5469,699.4375 2136.7656,699.4375 Q2137.1406,699.4375 2137.375,699.7031 Q2137.6094,699.9531 2137.6094,700.5625 L2137.6094,702.0156 Q2137.6094,702.625 2137.375,702.8906 Q2137.1406,703.1563 2136.7656,703.1563 Q2136.4219,703.1563 2136.2188,702.9531 Q2136.0156,702.7656 2135.9063,702.25 Q2135.8594,701.8906 2135.6719,701.7031 Q2135.3438,701.3281 2134.7344,701.1094 Q2134.125,700.8906 2133.5,700.8906 Q2132.7344,700.8906 2132.0938,701.2188 Q2131.4688,701.5469 2130.9688,702.2969 Q2130.4844,703.0469 2130.4844,704.0781 L2130.4844,705.1719 Q2130.4844,706.4063 2131.375,707.2344 Q2132.2656,708.0469 2133.8594,708.0469 Q2134.7969,708.0469 2135.4531,707.7969 Q2135.8438,707.6406 2136.2656,707.2031 Q2136.5313,706.9375 2136.6719,706.8594 Q2136.8281,706.7813 2137.0313,706.7813 Q2137.3594,706.7813 2137.6094,707.0469 Q2137.875,707.2969 2137.875,707.6406 Q2137.875,707.9844 2137.5313,708.3906 Q2137.0313,708.9688 2136.2344,709.2969 Q2135.1563,709.75 2133.8594,709.75 Q2132.3438,709.75 2131.1406,709.125 Q2130.1563,708.625 2129.4688,707.5625 Q2128.7813,706.4844 2128.7813,705.2031 L2128.7813,704.0469 Q2128.7813,702.7188 2129.3906,701.5781 Q2130.0156,700.4219 2131.1094,699.8125 Q2132.2031,699.1875 2133.4375,699.1875 Q2134.1719,699.1875 2134.8125,699.3594 Q2135.4688,699.5156 2136.0156,699.875 Z " fill="#000000"/><text fill="#000000" font-family="sans-serif" font-size="14" lengthAdjust="spacing" textLength="122" x="2153.75" y="709.7285">VacancyRepository</text><line style="stroke:#181818;stroke-width:0.5;" x1="2006" x2="2391" y1="720" y2="720"/><line style="stroke:#181818;stroke-width:0.5;" x1="2006" x2="2391" y1="728" y2="728"/><text fill="#000000" font-family="sans-serif" font-size="14" lengthAdjust="spacing" textLength="375" x="2011" y="746.5332">+VacancyRepository(context:MilitaryRecruitmentDbContext)</text><text fill="#000000" font-family="sans-serif" font-size="14" lengthAdjust="spacing" textLength="191" x="2011" y="764.1426">+Add(vacancy:Vacancy) : void</text><text fill="#000000" font-family="sans-serif" font-size="14" lengthAdjust="spacing" textLength="211" x="2011" y="781.752">+Update(vacancy:Vacancy) : void</text><text fill="#000000" font-family="sans-serif" font-size="14" lengthAdjust="spacing" textLength="207" x="2011" y="799.3613">+Delete(vacancy:Vacancy) : void</text><text fill="#000000" font-family="sans-serif" font-size="14" lengthAdjust="spacing" textLength="179" x="2011" y="816.9707">+GetById(id:Guid) : Vacancy</text><text fill="#000000" font-family="sans-serif" font-size="14" lengthAdjust="spacing" textLength="217" x="2011" y="834.5801">+GetAll() : IEnumerable&lt;Vacancy&gt;</text></g><!--class ApplicationService--><g id="elem_ApplicationService"><rect codeLine="51" fill="#F1F1F1" height="224.0938" id="ApplicationService" rx="2.5" ry="2.5" style="stroke:#181818;stroke-width:0.5;" width="1339" x="7" y="379"/><ellipse cx="614.25" cy="395" fill="#ADD1B2" rx="11" ry="11" style="stroke:#181818;stroke-width:1.0;"/><path d="M617.0156,390.875 Q617.1719,390.6563 617.3594,390.5469 Q617.5469,390.4375 617.7656,390.4375 Q618.1406,390.4375 618.375,390.7031 Q618.6094,390.9531 618.6094,391.5625 L618.6094,393.0156 Q618.6094,393.625 618.375,393.8906 Q618.1406,394.1563 617.7656,394.1563 Q617.4219,394.1563 617.2188,393.9531 Q617.0156,393.7656 616.9063,393.25 Q616.8594,392.8906 616.6719,392.7031 Q616.3438,392.3281 615.7344,392.1094 Q615.125,391.8906 614.5,391.8906 Q613.7344,391.8906 613.0938,392.2188 Q612.4688,392.5469 611.9688,393.2969 Q611.4844,394.0469 611.4844,395.0781 L611.4844,396.1719 Q611.4844,397.4063 612.375,398.2344 Q613.2656,399.0469 614.8594,399.0469 Q615.7969,399.0469 616.4531,398.7969 Q616.8438,398.6406 617.2656,398.2031 Q617.5313,397.9375 617.6719,397.8594 Q617.8281,397.7813 618.0313,397.7813 Q618.3594,397.7813 618.6094,398.0469 Q618.875,398.2969 618.875,398.6406 Q618.875,398.9844 618.5313,399.3906 Q618.0313,399.9688 617.2344,400.2969 Q616.1563,400.75 614.8594,400.75 Q613.3438,400.75 612.1406,400.125 Q611.1563,399.625 610.4688,398.5625 Q609.7813,397.4844 609.7813,396.2031 L609.7813,395.0469 Q609.7813,393.7188 610.3906,392.5781 Q611.0156,391.4219 612.1094,390.8125 Q613.2031,390.1875 614.4375,390.1875 Q615.1719,390.1875 615.8125,390.3594 Q616.4688,390.5156 617.0156,390.875 Z " fill="#000000"/><text fill="#000000" font-family="sans-serif" font-size="14" lengthAdjust="spacing" textLength="116" x="634.75" y="400.7285">ApplicationService</text><line style="stroke:#181818;stroke-width:0.5;" x1="8" x2="1345" y1="411" y2="411"/><line style="stroke:#181818;stroke-width:0.5;" x1="8" x2="1345" y1="419" y2="419"/><text fill="#000000" font-family="sans-serif" font-size="14" lengthAdjust="spacing" textLength="1327" x="13" y="437.5332">+ApplicationService(unitOfWork:UnitOfWork, applicationRepository:ApplicationRepository, candidateRepository:CandidateRepository, vacancyRepository:VacancyRepository, logger:ILogger&lt;ApplicationService&gt;)</text><text fill="#000000" font-family="sans-serif" font-size="14" lengthAdjust="spacing" textLength="188" x="13" y="455.1426">+ResetAllAssignments() : void</text><text fill="#000000" font-family="sans-serif" font-size="14" lengthAdjust="spacing" textLength="353" x="13" y="472.752">+GetAllApplications() : IEnumerable&lt;ApplicationGetDto&gt;</text><text fill="#000000" font-family="sans-serif" font-size="14" lengthAdjust="spacing" textLength="308" x="13" y="490.3613">+GetApplicationById(id:Guid) : ApplicationGetDto</text><text fill="#000000" font-family="sans-serif" font-size="14" lengthAdjust="spacing" textLength="484" x="13" y="507.9707">+CreateApplication(applicationDto:ApplicationCreateDto) : ApplicationGetDto</text><text fill="#000000" font-family="sans-serif" font-size="14" lengthAdjust="spacing" textLength="211" x="13" y="525.5801">+DeleteApplication(id:Guid) : void</text><text fill="#000000" font-family="sans-serif" font-size="14" lengthAdjust="spacing" textLength="357" x="13" y="543.1895">+RunMakAlgorithm() : IEnumerable&lt;AlgorithmResultDto&gt;</text><text fill="#000000" font-family="sans-serif" font-size="14" lengthAdjust="spacing" textLength="537" x="13" y="560.7988">+GetApplicationsByCandidateId(candidateId:Guid) : IEnumerable&lt;ApplicationGetDto&gt;</text><text fill="#000000" font-family="sans-serif" font-size="14" lengthAdjust="spacing" textLength="516" x="13" y="578.4082">+GetApplicationsByVacancyId(vacancyId:Guid) : IEnumerable&lt;ApplicationGetDto&gt;</text><text fill="#000000" font-family="sans-serif" font-size="14" lengthAdjust="spacing" textLength="725" x="13" y="596.0176">+GetApplicationByCandidateIdAndVacancyId(candidateId:Guid, vacancyId:Guid) : IEnumerable&lt;ApplicationGetDto&gt;</text></g><!--class CandidateService--><g id="elem_CandidateService"><rect codeLine="64" fill="#F1F1F1" height="136.0469" id="CandidateService" rx="2.5" ry="2.5" style="stroke:#181818;stroke-width:0.5;" width="564" x="1396.5" y="423"/><ellipse cx="1618.25" cy="439" fill="#ADD1B2" rx="11" ry="11" style="stroke:#181818;stroke-width:1.0;"/><path d="M1621.0156,434.875 Q1621.1719,434.6563 1621.3594,434.5469 Q1621.5469,434.4375 1621.7656,434.4375 Q1622.1406,434.4375 1622.375,434.7031 Q1622.6094,434.9531 1622.6094,435.5625 L1622.6094,437.0156 Q1622.6094,437.625 1622.375,437.8906 Q1622.1406,438.1563 1621.7656,438.1563 Q1621.4219,438.1563 1621.2188,437.9531 Q1621.0156,437.7656 1620.9063,437.25 Q1620.8594,436.8906 1620.6719,436.7031 Q1620.3438,436.3281 1619.7344,436.1094 Q1619.125,435.8906 1618.5,435.8906 Q1617.7344,435.8906 1617.0938,436.2188 Q1616.4688,436.5469 1615.9688,437.2969 Q1615.4844,438.0469 1615.4844,439.0781 L1615.4844,440.1719 Q1615.4844,441.4063 1616.375,442.2344 Q1617.2656,443.0469 1618.8594,443.0469 Q1619.7969,443.0469 1620.4531,442.7969 Q1620.8438,442.6406 1621.2656,442.2031 Q1621.5313,441.9375 1621.6719,441.8594 Q1621.8281,441.7813 1622.0313,441.7813 Q1622.3594,441.7813 1622.6094,442.0469 Q1622.875,442.2969 1622.875,442.6406 Q1622.875,442.9844 1622.5313,443.3906 Q1622.0313,443.9688 1621.2344,444.2969 Q1620.1563,444.75 1618.8594,444.75 Q1617.3438,444.75 1616.1406,444.125 Q1615.1563,443.625 1614.4688,442.5625 Q1613.7813,441.4844 1613.7813,440.2031 L1613.7813,439.0469 Q1613.7813,437.7188 1614.3906,436.5781 Q1615.0156,435.4219 1616.1094,434.8125 Q1617.2031,434.1875 1618.4375,434.1875 Q1619.1719,434.1875 1619.8125,434.3594 Q1620.4688,434.5156 1621.0156,434.875 Z " fill="#000000"/><text fill="#000000" font-family="sans-serif" font-size="14" lengthAdjust="spacing" textLength="112" x="1638.75" y="444.7285">CandidateService</text><line style="stroke:#181818;stroke-width:0.5;" x1="1397.5" x2="1959.5" y1="455" y2="455"/><line style="stroke:#181818;stroke-width:0.5;" x1="1397.5" x2="1959.5" y1="463" y2="463"/><text fill="#000000" font-family="sans-serif" font-size="14" lengthAdjust="spacing" textLength="552" x="1402.5" y="481.5332">+CandidateService(unitOfWork:UnitOfWork, candidateRepository:CandidateRepository)</text><text fill="#000000" font-family="sans-serif" font-size="14" lengthAdjust="spacing" textLength="345" x="1402.5" y="499.1426">+GetAllCandidates() : IEnumerable&lt;CandidateGetDto&gt;</text><text fill="#000000" font-family="sans-serif" font-size="14" lengthAdjust="spacing" textLength="300" x="1402.5" y="516.752">+GetCandidateById(id:Guid) : CandidateGetDto</text><text fill="#000000" font-family="sans-serif" font-size="14" lengthAdjust="spacing" textLength="382" x="1402.5" y="534.3613">+CreateCandidate(candidateDto:CandidateCreateDto) : void</text><text fill="#000000" font-family="sans-serif" font-size="14" lengthAdjust="spacing" textLength="207" x="1402.5" y="551.9707">+DeleteCandidate(id:Guid) : void</text></g><!--class VacancyService--><g id="elem_VacancyService"><rect codeLine="72" fill="#F1F1F1" height="136.0469" id="VacancyService" rx="2.5" ry="2.5" style="stroke:#181818;stroke-width:0.5;" width="532" x="2010.5" y="423"/><ellipse cx="2221.75" cy="439" fill="#ADD1B2" rx="11" ry="11" style="stroke:#181818;stroke-width:1.0;"/><path d="M2224.5156,434.875 Q2224.6719,434.6563 2224.8594,434.5469 Q2225.0469,434.4375 2225.2656,434.4375 Q2225.6406,434.4375 2225.875,434.7031 Q2226.1094,434.9531 2226.1094,435.5625 L2226.1094,437.0156 Q2226.1094,437.625 2225.875,437.8906 Q2225.6406,438.1563 2225.2656,438.1563 Q2224.9219,438.1563 2224.7188,437.9531 Q2224.5156,437.7656 2224.4063,437.25 Q2224.3594,436.8906 2224.1719,436.7031 Q2223.8438,436.3281 2223.2344,436.1094 Q2222.625,435.8906 2222,435.8906 Q2221.2344,435.8906 2220.5938,436.2188 Q2219.9688,436.5469 2219.4688,437.2969 Q2218.9844,438.0469 2218.9844,439.0781 L2218.9844,440.1719 Q2218.9844,441.4063 2219.875,442.2344 Q2220.7656,443.0469 2222.3594,443.0469 Q2223.2969,443.0469 2223.9531,442.7969 Q2224.3438,442.6406 2224.7656,442.2031 Q2225.0313,441.9375 2225.1719,441.8594 Q2225.3281,441.7813 2225.5313,441.7813 Q2225.8594,441.7813 2226.1094,442.0469 Q2226.375,442.2969 2226.375,442.6406 Q2226.375,442.9844 2226.0313,443.3906 Q2225.5313,443.9688 2224.7344,444.2969 Q2223.6563,444.75 2222.3594,444.75 Q2220.8438,444.75 2219.6406,444.125 Q2218.6563,443.625 2217.9688,442.5625 Q2217.2813,441.4844 2217.2813,440.2031 L2217.2813,439.0469 Q2217.2813,437.7188 2217.8906,436.5781 Q2218.5156,435.4219 2219.6094,434.8125 Q2220.7031,434.1875 2221.9375,434.1875 Q2222.6719,434.1875 2223.3125,434.3594 Q2223.9688,434.5156 2224.5156,434.875 Z " fill="#000000"/><text fill="#000000" font-family="sans-serif" font-size="14" lengthAdjust="spacing" textLength="101" x="2242.25" y="444.7285">VacancyService</text><line style="stroke:#181818;stroke-width:0.5;" x1="2011.5" x2="2541.5" y1="455" y2="455"/><line style="stroke:#181818;stroke-width:0.5;" x1="2011.5" x2="2541.5" y1="463" y2="463"/><text fill="#000000" font-family="sans-serif" font-size="14" lengthAdjust="spacing" textLength="520" x="2016.5" y="481.5332">+VacancyService(unitOfWork:UnitOfWork, vacancyRepository:VacancyRepository)</text><text fill="#000000" font-family="sans-serif" font-size="14" lengthAdjust="spacing" textLength="327" x="2016.5" y="499.1426">+GetAllVacancies() : IEnumerable&lt;VacancyGetDto&gt;</text><text fill="#000000" font-family="sans-serif" font-size="14" lengthAdjust="spacing" textLength="278" x="2016.5" y="516.752">+GetVacancyById(id:Guid) : VacancyGetDto</text><text fill="#000000" font-family="sans-serif" font-size="14" lengthAdjust="spacing" textLength="350" x="2016.5" y="534.3613">+CreateVacancy(vacancyDto:VacancyCreateDto) : void</text><text fill="#000000" font-family="sans-serif" font-size="14" lengthAdjust="spacing" textLength="196" x="2016.5" y="551.9707">+DeleteVacancy(id:Guid) : void</text></g><!--class ApplicationsController--><g id="elem_ApplicationsController"><rect codeLine="82" fill="#F1F1F1" height="224.0938" id="ApplicationsController" rx="2.5" ry="2.5" style="stroke:#181818;stroke-width:0.5;" width="610" x="582.5" y="105"/><ellipse cx="814.25" cy="121" fill="#ADD1B2" rx="11" ry="11" style="stroke:#181818;stroke-width:1.0;"/><path d="M817.0156,116.875 Q817.1719,116.6563 817.3594,116.5469 Q817.5469,116.4375 817.7656,116.4375 Q818.1406,116.4375 818.375,116.7031 Q818.6094,116.9531 818.6094,117.5625 L818.6094,119.0156 Q818.6094,119.625 818.375,119.8906 Q818.1406,120.1563 817.7656,120.1563 Q817.4219,120.1563 817.2188,119.9531 Q817.0156,119.7656 816.9063,119.25 Q816.8594,118.8906 816.6719,118.7031 Q816.3438,118.3281 815.7344,118.1094 Q815.125,117.8906 814.5,117.8906 Q813.7344,117.8906 813.0938,118.2188 Q812.4688,118.5469 811.9688,119.2969 Q811.4844,120.0469 811.4844,121.0781 L811.4844,122.1719 Q811.4844,123.4063 812.375,124.2344 Q813.2656,125.0469 814.8594,125.0469 Q815.7969,125.0469 816.4531,124.7969 Q816.8438,124.6406 817.2656,124.2031 Q817.5313,123.9375 817.6719,123.8594 Q817.8281,123.7813 818.0313,123.7813 Q818.3594,123.7813 818.6094,124.0469 Q818.875,124.2969 818.875,124.6406 Q818.875,124.9844 818.5313,125.3906 Q818.0313,125.9688 817.2344,126.2969 Q816.1563,126.75 814.8594,126.75 Q813.3438,126.75 812.1406,126.125 Q811.1563,125.625 810.4688,124.5625 Q809.7813,123.4844 809.7813,122.2031 L809.7813,121.0469 Q809.7813,119.7188 810.3906,118.5781 Q811.0156,117.4219 812.1094,116.8125 Q813.2031,116.1875 814.4375,116.1875 Q815.1719,116.1875 815.8125,116.3594 Q816.4688,116.5156 817.0156,116.875 Z " fill="#000000"/><text fill="#000000" font-family="sans-serif" font-size="14" lengthAdjust="spacing" textLength="138" x="834.75" y="126.7285">ApplicationsController</text><line style="stroke:#181818;stroke-width:0.5;" x1="583.5" x2="1191.5" y1="137" y2="137"/><line style="stroke:#181818;stroke-width:0.5;" x1="583.5" x2="1191.5" y1="145" y2="145"/><text fill="#000000" font-family="sans-serif" font-size="14" lengthAdjust="spacing" textLength="391" x="588.5" y="163.5332">+ApplicationsController(applicationService:ApplicationService)</text><text fill="#000000" font-family="sans-serif" font-size="14" lengthAdjust="spacing" textLength="226" x="588.5" y="181.1426">+GetAllApplications() : IActionResult</text><text fill="#000000" font-family="sans-serif" font-size="14" lengthAdjust="spacing" textLength="276" x="588.5" y="198.752">+GetApplicationById(id:Guid) : IActionResult</text><text fill="#000000" font-family="sans-serif" font-size="14" lengthAdjust="spacing" textLength="452" x="588.5" y="216.3613">+CreateApplication(applicationDto:ApplicationCreateDto) : IActionResult</text><text fill="#000000" font-family="sans-serif" font-size="14" lengthAdjust="spacing" textLength="267" x="588.5" y="233.9707">+DeleteApplication(id:Guid) : IActionResult</text><text fill="#000000" font-family="sans-serif" font-size="14" lengthAdjust="spacing" textLength="410" x="588.5" y="251.5801">+GetApplicationsByCandidateId(candidateId:Guid) : IActionResult</text><text fill="#000000" font-family="sans-serif" font-size="14" lengthAdjust="spacing" textLength="389" x="588.5" y="269.1895">+GetApplicationsByVacancyId(vacancyId:Guid) : IActionResult</text><text fill="#000000" font-family="sans-serif" font-size="14" lengthAdjust="spacing" textLength="598" x="588.5" y="286.7988">+GetApplicationByCandidateIdAndVacancyId(candidateId:Guid, vacancyId:Guid) : IActionResult</text><text fill="#000000" font-family="sans-serif" font-size="14" lengthAdjust="spacing" textLength="270" x="588.5" y="304.4082">+RunAssignmentAlgorithm() : IActionResult</text><text fill="#000000" font-family="sans-serif" font-size="14" lengthAdjust="spacing" textLength="229" x="588.5" y="322.0176">+ResetAssignments() : IActionResult</text></g><!--class ControllerBase--><g id="elem_ControllerBase"><rect fill="#F1F1F1" height="48" id="ControllerBase" rx="2.5" ry="2.5" style="stroke:#181818;stroke-width:0.5;" width="126" x="1615.5" y="7"/><ellipse cx="1630.5" cy="23" fill="#ADD1B2" rx="11" ry="11" style="stroke:#181818;stroke-width:1.0;"/><path d="M1633.2656,18.875 Q1633.4219,18.6563 1633.6094,18.5469 Q1633.7969,18.4375 1634.0156,18.4375 Q1634.3906,18.4375 1634.625,18.7031 Q1634.8594,18.9531 1634.8594,19.5625 L1634.8594,21.0156 Q1634.8594,21.625 1634.625,21.8906 Q1634.3906,22.1563 1634.0156,22.1563 Q1633.6719,22.1563 1633.4688,21.9531 Q1633.2656,21.7656 1633.1563,21.25 Q1633.1094,20.8906 1632.9219,20.7031 Q1632.5938,20.3281 1631.9844,20.1094 Q1631.375,19.8906 1630.75,19.8906 Q1629.9844,19.8906 1629.3438,20.2188 Q1628.7188,20.5469 1628.2188,21.2969 Q1627.7344,22.0469 1627.7344,23.0781 L1627.7344,24.1719 Q1627.7344,25.4063 1628.625,26.2344 Q1629.5156,27.0469 1631.1094,27.0469 Q1632.0469,27.0469 1632.7031,26.7969 Q1633.0938,26.6406 1633.5156,26.2031 Q1633.7813,25.9375 1633.9219,25.8594 Q1634.0781,25.7813 1634.2813,25.7813 Q1634.6094,25.7813 1634.8594,26.0469 Q1635.125,26.2969 1635.125,26.6406 Q1635.125,26.9844 1634.7813,27.3906 Q1634.2813,27.9688 1633.4844,28.2969 Q1632.4063,28.75 1631.1094,28.75 Q1629.5938,28.75 1628.3906,28.125 Q1627.4063,27.625 1626.7188,26.5625 Q1626.0313,25.4844 1626.0313,24.2031 L1626.0313,23.0469 Q1626.0313,21.7188 1626.6406,20.5781 Q1627.2656,19.4219 1628.3594,18.8125 Q1629.4531,18.1875 1630.6875,18.1875 Q1631.4219,18.1875 1632.0625,18.3594 Q1632.7188,18.5156 1633.2656,18.875 Z " fill="#000000"/><text fill="#000000" font-family="sans-serif" font-size="14" lengthAdjust="spacing" textLength="94" x="1644.5" y="28.7285">ControllerBase</text><line style="stroke:#181818;stroke-width:0.5;" x1="1616.5" x2="1740.5" y1="39" y2="39"/><line style="stroke:#181818;stroke-width:0.5;" x1="1616.5" x2="1740.5" y1="47" y2="47"/></g><!--class CandidatesController--><g id="elem_CandidatesController"><rect codeLine="96" fill="#F1F1F1" height="136.0469" id="CandidatesController" rx="2.5" ry="2.5" style="stroke:#181818;stroke-width:0.5;" width="450" x="1453.5" y="149"/><ellipse cx="1607.25" cy="165" fill="#ADD1B2" rx="11" ry="11" style="stroke:#181818;stroke-width:1.0;"/><path d="M1610.0156,160.875 Q1610.1719,160.6563 1610.3594,160.5469 Q1610.5469,160.4375 1610.7656,160.4375 Q1611.1406,160.4375 1611.375,160.7031 Q1611.6094,160.9531 1611.6094,161.5625 L1611.6094,163.0156 Q1611.6094,163.625 1611.375,163.8906 Q1611.1406,164.1563 1610.7656,164.1563 Q1610.4219,164.1563 1610.2188,163.9531 Q1610.0156,163.7656 1609.9063,163.25 Q1609.8594,162.8906 1609.6719,162.7031 Q1609.3438,162.3281 1608.7344,162.1094 Q1608.125,161.8906 1607.5,161.8906 Q1606.7344,161.8906 1606.0938,162.2188 Q1605.4688,162.5469 1604.9688,163.2969 Q1604.4844,164.0469 1604.4844,165.0781 L1604.4844,166.1719 Q1604.4844,167.4063 1605.375,168.2344 Q1606.2656,169.0469 1607.8594,169.0469 Q1608.7969,169.0469 1609.4531,168.7969 Q1609.8438,168.6406 1610.2656,168.2031 Q1610.5313,167.9375 1610.6719,167.8594 Q1610.8281,167.7813 1611.0313,167.7813 Q1611.3594,167.7813 1611.6094,168.0469 Q1611.875,168.2969 1611.875,168.6406 Q1611.875,168.9844 1611.5313,169.3906 Q1611.0313,169.9688 1610.2344,170.2969 Q1609.1563,170.75 1607.8594,170.75 Q1606.3438,170.75 1605.1406,170.125 Q1604.1563,169.625 1603.4688,168.5625 Q1602.7813,167.4844 1602.7813,166.2031 L1602.7813,165.0469 Q1602.7813,163.7188 1603.3906,162.5781 Q1604.0156,161.4219 1605.1094,160.8125 Q1606.2031,160.1875 1607.4375,160.1875 Q1608.1719,160.1875 1608.8125,160.3594 Q1609.4688,160.5156 1610.0156,160.875 Z " fill="#000000"/><text fill="#000000" font-family="sans-serif" font-size="14" lengthAdjust="spacing" textLength="134" x="1627.75" y="170.7285">CandidatesController</text><line style="stroke:#181818;stroke-width:0.5;" x1="1454.5" x2="1902.5" y1="181" y2="181"/><line style="stroke:#181818;stroke-width:0.5;" x1="1454.5" x2="1902.5" y1="189" y2="189"/><text fill="#000000" font-family="sans-serif" font-size="14" lengthAdjust="spacing" textLength="377" x="1459.5" y="207.5332">+CandidatesController(candidateService:CandidateService)</text><text fill="#000000" font-family="sans-serif" font-size="14" lengthAdjust="spacing" textLength="222" x="1459.5" y="225.1426">+GetAllCandidates() : IActionResult</text><text fill="#000000" font-family="sans-serif" font-size="14" lengthAdjust="spacing" textLength="272" x="1459.5" y="242.752">+GetCandidateById(id:Guid) : IActionResult</text><text fill="#000000" font-family="sans-serif" font-size="14" lengthAdjust="spacing" textLength="438" x="1459.5" y="260.3613">+CreateCandidate(candidateDto:CandidateCreateDto) : IActionResult</text><text fill="#000000" font-family="sans-serif" font-size="14" lengthAdjust="spacing" textLength="263" x="1459.5" y="277.9707">+DeleteCandidate(id:Guid) : IActionResult</text></g><!--class VacanciesController--><g id="elem_VacanciesController"><rect codeLine="105" fill="#F1F1F1" height="136.0469" id="VacanciesController" rx="2.5" ry="2.5" style="stroke:#181818;stroke-width:0.5;" width="418" x="2010.5" y="149"/><ellipse cx="2151.75" cy="165" fill="#ADD1B2" rx="11" ry="11" style="stroke:#181818;stroke-width:1.0;"/><path d="M2154.5156,160.875 Q2154.6719,160.6563 2154.8594,160.5469 Q2155.0469,160.4375 2155.2656,160.4375 Q2155.6406,160.4375 2155.875,160.7031 Q2156.1094,160.9531 2156.1094,161.5625 L2156.1094,163.0156 Q2156.1094,163.625 2155.875,163.8906 Q2155.6406,164.1563 2155.2656,164.1563 Q2154.9219,164.1563 2154.7188,163.9531 Q2154.5156,163.7656 2154.4063,163.25 Q2154.3594,162.8906 2154.1719,162.7031 Q2153.8438,162.3281 2153.2344,162.1094 Q2152.625,161.8906 2152,161.8906 Q2151.2344,161.8906 2150.5938,162.2188 Q2149.9688,162.5469 2149.4688,163.2969 Q2148.9844,164.0469 2148.9844,165.0781 L2148.9844,166.1719 Q2148.9844,167.4063 2149.875,168.2344 Q2150.7656,169.0469 2152.3594,169.0469 Q2153.2969,169.0469 2153.9531,168.7969 Q2154.3438,168.6406 2154.7656,168.2031 Q2155.0313,167.9375 2155.1719,167.8594 Q2155.3281,167.7813 2155.5313,167.7813 Q2155.8594,167.7813 2156.1094,168.0469 Q2156.375,168.2969 2156.375,168.6406 Q2156.375,168.9844 2156.0313,169.3906 Q2155.5313,169.9688 2154.7344,170.2969 Q2153.6563,170.75 2152.3594,170.75 Q2150.8438,170.75 2149.6406,170.125 Q2148.6563,169.625 2147.9688,168.5625 Q2147.2813,167.4844 2147.2813,166.2031 L2147.2813,165.0469 Q2147.2813,163.7188 2147.8906,162.5781 Q2148.5156,161.4219 2149.6094,160.8125 Q2150.7031,160.1875 2151.9375,160.1875 Q2152.6719,160.1875 2153.3125,160.3594 Q2153.9688,160.5156 2154.5156,160.875 Z " fill="#000000"/><text fill="#000000" font-family="sans-serif" font-size="14" lengthAdjust="spacing" textLength="127" x="2172.25" y="170.7285">VacanciesController</text><line style="stroke:#181818;stroke-width:0.5;" x1="2011.5" x2="2427.5" y1="181" y2="181"/><line style="stroke:#181818;stroke-width:0.5;" x1="2011.5" x2="2427.5" y1="189" y2="189"/><text fill="#000000" font-family="sans-serif" font-size="14" lengthAdjust="spacing" textLength="349" x="2016.5" y="207.5332">+VacanciesController(vacancyService:VacancyService)</text><text fill="#000000" font-family="sans-serif" font-size="14" lengthAdjust="spacing" textLength="215" x="2016.5" y="225.1426">+GetAllVacancies() : IActionResult</text><text fill="#000000" font-family="sans-serif" font-size="14" lengthAdjust="spacing" textLength="261" x="2016.5" y="242.752">+GetVacancyById(id:Guid) : IActionResult</text><text fill="#000000" font-family="sans-serif" font-size="14" lengthAdjust="spacing" textLength="406" x="2016.5" y="260.3613">+CreateVacancy(vacancyDto:VacancyCreateDto) : IActionResult</text><text fill="#000000" font-family="sans-serif" font-size="14" lengthAdjust="spacing" textLength="252" x="2016.5" y="277.9707">+DeleteVacancy(id:Guid) : IActionResult</text></g><!--reverse link ControllerBase to ApplicationsController--><g id="link_ControllerBase_ApplicationsController"><path codeLine="94" d="M1657.5,75.22 C1657.5,75.22 1657.5,127 1657.5,127 C1657.5,127 1407.7,127 1192.65,127 " fill="none" id="ControllerBase-backto-ApplicationsController" style="stroke:#181818;stroke-width:1.0;"/><polygon fill="none" points="1650.5,75.22,1657.5,55.22,1664.5,75.22,1650.5,75.22" style="stroke:#181818;stroke-width:1.0;"/></g><!--reverse link ControllerBase to CandidatesController--><g id="link_ControllerBase_CandidatesController"><path codeLine="103" d="M1699.5,75.32 C1699.5,75.32 1699.5,148.6 1699.5,148.6 " fill="none" id="ControllerBase-backto-CandidatesController" style="stroke:#181818;stroke-width:1.0;"/><polygon fill="none" points="1692.5,75.32,1699.5,55.32,1706.5,75.32,1692.5,75.32" style="stroke:#181818;stroke-width:1.0;"/></g><!--reverse link ControllerBase to VacanciesController--><g id="link_ControllerBase_VacanciesController"><path codeLine="112" d="M1761.62,31 C1761.62,31 2219.5,31 2219.5,31 C2219.5,31 2219.5,95.71 2219.5,148.8 " fill="none" id="ControllerBase-backto-VacanciesController" style="stroke:#181818;stroke-width:1.0;"/><polygon fill="none" points="1761.62,38,1741.62,31,1761.62,24,1761.62,38" style="stroke:#181818;stroke-width:1.0;"/></g><!--link ApplicationsController to ApplicationService--><g id="link_ApplicationsController_ApplicationService"><path codeLine="116" d="M887.5,329.24 C887.5,329.24 887.5,373.94 887.5,373.94 " fill="none" id="ApplicationsController-to-ApplicationService" style="stroke:#181818;stroke-width:1.0;"/><polygon fill="#181818" points="887.5,378.94,891.5,369.94,887.5,373.94,883.5,369.94,887.5,378.94" style="stroke:#181818;stroke-width:1.0;"/></g><!--link CandidatesController to CandidateService--><g id="link_CandidatesController_CandidateService"><path codeLine="117" d="M1678.5,285.08 C1678.5,285.08 1678.5,417.79 1678.5,417.79 " fill="none" id="CandidatesController-to-CandidateService" style="stroke:#181818;stroke-width:1.0;"/><polygon fill="#181818" points="1678.5,422.79,1682.5,413.79,1678.5,417.79,1674.5,413.79,1678.5,422.79" style="stroke:#181818;stroke-width:1.0;"/></g><!--link VacanciesController to VacancyService--><g id="link_VacanciesController_VacancyService"><path codeLine="118" d="M2219.5,285.08 C2219.5,285.08 2219.5,417.79 2219.5,417.79 " fill="none" id="VacanciesController-to-VacancyService" style="stroke:#181818;stroke-width:1.0;"/><polygon fill="#181818" points="2219.5,422.79,2223.5,413.79,2219.5,417.79,2215.5,413.79,2219.5,422.79" style="stroke:#181818;stroke-width:1.0;"/></g><!--link ApplicationService to ApplicationRepository--><g id="link_ApplicationService_ApplicationRepository"><path codeLine="120" d="M814.5,603.24 C814.5,603.24 814.5,647.94 814.5,647.94 " fill="none" id="ApplicationService-to-ApplicationRepository" style="stroke:#181818;stroke-width:1.0;"/><polygon fill="#181818" points="814.5,652.94,818.5,643.94,814.5,647.94,810.5,643.94,814.5,652.94" style="stroke:#181818;stroke-width:1.0;"/></g><!--link CandidateService to CandidateRepository--><g id="link_CandidateService_CandidateRepository"><path codeLine="121" d="M1678.5,559.08 C1678.5,559.08 1678.5,682.58 1678.5,682.58 " fill="none" id="CandidateService-to-CandidateRepository" style="stroke:#181818;stroke-width:1.0;"/><polygon fill="#181818" points="1678.5,687.58,1682.5,678.58,1678.5,682.58,1674.5,678.58,1678.5,687.58" style="stroke:#181818;stroke-width:1.0;"/></g><!--link VacancyService to VacancyRepository--><g id="link_VacancyService_VacancyRepository"><path codeLine="122" d="M2201.25,559.08 C2201.25,559.08 2201.25,682.58 2201.25,682.58 " fill="none" id="VacancyService-to-VacancyRepository" style="stroke:#181818;stroke-width:1.0;"/><polygon fill="#181818" points="2201.25,687.58,2205.25,678.58,2201.25,682.58,2197.25,678.58,2201.25,687.58" style="stroke:#181818;stroke-width:1.0;"/></g><!--link ApplicationRepository to MilitaryRecruitmentDbContext--><g id="link_ApplicationRepository_MilitaryRecruitmentDbContext"><path codeLine="124" d="M1292.19,860 C1351.47,860 1391.75,860 1391.75,860 C1391.75,860 1391.75,921.69 1391.75,921.69 " fill="none" id="ApplicationRepository-to-MilitaryRecruitmentDbContext" style="stroke:#181818;stroke-width:1.0;"/><polygon fill="#181818" points="1391.75,926.69,1395.75,917.69,1391.75,921.69,1387.75,917.69,1391.75,926.69" style="stroke:#181818;stroke-width:1.0;"/></g><!--link CandidateRepository to MilitaryRecruitmentDbContext--><g id="link_CandidateRepository_MilitaryRecruitmentDbContext"><path codeLine="125" d="M1678.5,842.3 C1678.5,842.3 1678.5,921.86 1678.5,921.86 " fill="none" id="CandidateRepository-to-MilitaryRecruitmentDbContext" style="stroke:#181818;stroke-width:1.0;"/><polygon fill="#181818" points="1678.5,926.86,1682.5,917.86,1678.5,921.86,1674.5,917.86,1678.5,926.86" style="stroke:#181818;stroke-width:1.0;"/></g><!--link VacancyRepository to MilitaryRecruitmentDbContext--><g id="link_VacancyRepository_MilitaryRecruitmentDbContext"><path codeLine="126" d="M2004.82,765 C1981.23,765 1965.25,765 1965.25,765 C1965.25,765 1965.25,921.78 1965.25,921.78 " fill="none" id="VacancyRepository-to-MilitaryRecruitmentDbContext" style="stroke:#181818;stroke-width:1.0;"/><polygon fill="#181818" points="1965.25,926.78,1969.25,917.78,1965.25,921.78,1961.25,917.78,1965.25,926.78" style="stroke:#181818;stroke-width:1.0;"/></g><!--SRC=[jLXDZzem4BtdLrXS5bIGjeTU8eJ4VcY5rDLAhBQzDYGkM1WxifrLQRl_lJPn72UPcB1jkIIQUJEsdr-U4wxGFKis5ACDLWeBH9CZBrGazuJbYKWEY1A6rJ77Y0krurw2yGnBdADFrrvG96pV2QOqaNAfb22RGk5Lojap-OdHTHHTeHLBQP5XTBUvvKpX7oeweT4ZeKGbuhZ6gIY8Ec2c70JzYf3-VK1VaZHXAS4InRh1CrRpCd9SeFbyYzN2NAMvseBRX6KaIvHNuK9zDSiyfoHD5E6ihlA2VNMX5OnvVkeNkyXJ6PY7gXQJw4rJDbfbEahKqIM-VHoXaPdJYyHYCKBptxDPSFp8ftwDSow9ua8JQTdtbkUoHqSxc1sdPUiuDEwawf1buwJk4diT9vhZLquoYtp9pTuC1DzXYWU37x2wEQwoCSdYXu9a9kk1Qz2Iqh59hkvPSS32F2oDxVVREJ7flcbzxmOOqiDAM7TuhUukglVci6HPtQqzdodwf_tr_KhUxhZ4xEQuf5ij9xKxd1rrYaYtAjvmJeFpUOkiKjri09q2kOjLwkOVkswmGiy3hJhF0m5bEcXObxMPrGpP7GBuwMGkPiVkPMmxmSo4GPQLC0XWn0B3V5J7WM73SxndB5v92hcTpK1MPrFZWX7rzFqh5_lunTrEKGAPOWnQvHIbNMN6W5hTm-B1EfisHPHljrZ4gy-dwxmxvqMrPsjzOXkYbbAIBJFRAiTTgWt0E_H2xgVHTufx_k3b0kvQbbMFgS1wrLxMDt0DyqaiiJeOQbXAoc_epS9RwhfWZyc-zghEEgkCfgsW_GkLxpR-47toNKT1U4F-mzbG3TXrvFQpr4xqFKa37uv9Gx3rcrs_ANQuSPbUkmM4wd8rQqQaBjoGQCVewkgs9jk6tQQl6UuZRu1XD8bpxz1zvjbXpSPx31bWp6Og4HksR2ZCLLK7CEMPkJcM1ASK2y3FPPs5FDrB-wPZEOwxJZevuvBBjBHwunU3J16gUBSXGis2PdX-laEyRKYJe9KDOEsld0lehxs_FWHRHm04FnsShLEp2NoBQZ7T91ANNs6ms3fU2UaKIjRhhJJQTjMmBS9Cz_fWlpelSi5-NO9sE8HNY9ocWHAGL21NAR9Yj6cqGRU4wUmno7uo1nfaFus0KmuX4I3ZPAtwrHu9J4lLxaWkenvBdSqMm2jo1ChQODjYZQ2jCi3c7aGHy8hU6hi-twBE6qXZQ0_OEcczWJrG1FyPOi31lrYWBzEpHTsFjNCbVm00]--></g></svg>