<?xml version="1.0" encoding="UTF-8" standalone="no"?><svg xmlns="http://www.w3.org/2000/svg" xmlns:xlink="http://www.w3.org/1999/xlink" contentStyleType="text/css" height="454px" preserveAspectRatio="none" style="width:609px;height:454px;background:#FFFFFF;" version="1.1" viewBox="0 0 609 454" width="609px" zoomAndPan="magnify"><defs/><g><!--class MilitaryRecruitmentDbContext--><g id="elem_MilitaryRecruitmentDbContext"><rect codeLine="8" fill="#F1F1F1" height="48" id="MilitaryRecruitmentDbContext" rx="2.5" ry="2.5" style="stroke:#181818;stroke-width:0.5;" width="218" x="201" y="399"/><ellipse cx="216" cy="415" fill="#ADD1B2" rx="11" ry="11" style="stroke:#181818;stroke-width:1.0;"/><path d="M218.7656,410.875 Q218.9219,410.6563 219.1094,410.5469 Q219.2969,410.4375 219.5156,410.4375 Q219.8906,410.4375 220.125,410.7031 Q220.3594,410.9531 220.3594,411.5625 L220.3594,413.0156 Q220.3594,413.625 220.125,413.8906 Q219.8906,414.1563 219.5156,414.1563 Q219.1719,414.1563 218.9688,413.9531 Q218.7656,413.7656 218.6563,413.25 Q218.6094,412.8906 218.4219,412.7031 Q218.0938,412.3281 217.4844,412.1094 Q216.875,411.8906 216.25,411.8906 Q215.4844,411.8906 214.8438,412.2188 Q214.2188,412.5469 213.7188,413.2969 Q213.2344,414.0469 213.2344,415.0781 L213.2344,416.1719 Q213.2344,417.4063 214.125,418.2344 Q215.0156,419.0469 216.6094,419.0469 Q217.5469,419.0469 218.2031,418.7969 Q218.5938,418.6406 219.0156,418.2031 Q219.2813,417.9375 219.4219,417.8594 Q219.5781,417.7813 219.7813,417.7813 Q220.1094,417.7813 220.3594,418.0469 Q220.625,418.2969 220.625,418.6406 Q220.625,418.9844 220.2813,419.3906 Q219.7813,419.9688 218.9844,420.2969 Q217.9063,420.75 216.6094,420.75 Q215.0938,420.75 213.8906,420.125 Q212.9063,419.625 212.2188,418.5625 Q211.5313,417.4844 211.5313,416.2031 L211.5313,415.0469 Q211.5313,413.7188 212.1406,412.5781 Q212.7656,411.4219 213.8594,410.8125 Q214.9531,410.1875 216.1875,410.1875 Q216.9219,410.1875 217.5625,410.3594 Q218.2188,410.5156 218.7656,410.875 Z " fill="#000000"/><text fill="#000000" font-family="sans-serif" font-size="14" lengthAdjust="spacing" textLength="186" x="230" y="420.7285">MilitaryRecruitmentDbContext</text><line style="stroke:#181818;stroke-width:0.5;" x1="202" x2="418" y1="431" y2="431"/><line style="stroke:#181818;stroke-width:0.5;" x1="202" x2="418" y1="439" y2="439"/></g><!--class ApplicationRepository--><g id="elem_ApplicationRepository"><rect codeLine="18" fill="#F1F1F1" height="48" id="ApplicationRepository" rx="2.5" ry="2.5" style="stroke:#181818;stroke-width:0.5;" width="169" x="8.5" y="301"/><ellipse cx="23.5" cy="317" fill="#ADD1B2" rx="11" ry="11" style="stroke:#181818;stroke-width:1.0;"/><path d="M26.2656,312.875 Q26.4219,312.6563 26.6094,312.5469 Q26.7969,312.4375 27.0156,312.4375 Q27.3906,312.4375 27.625,312.7031 Q27.8594,312.9531 27.8594,313.5625 L27.8594,315.0156 Q27.8594,315.625 27.625,315.8906 Q27.3906,316.1563 27.0156,316.1563 Q26.6719,316.1563 26.4688,315.9531 Q26.2656,315.7656 26.1563,315.25 Q26.1094,314.8906 25.9219,314.7031 Q25.5938,314.3281 24.9844,314.1094 Q24.375,313.8906 23.75,313.8906 Q22.9844,313.8906 22.3438,314.2188 Q21.7188,314.5469 21.2188,315.2969 Q20.7344,316.0469 20.7344,317.0781 L20.7344,318.1719 Q20.7344,319.4063 21.625,320.2344 Q22.5156,321.0469 24.1094,321.0469 Q25.0469,321.0469 25.7031,320.7969 Q26.0938,320.6406 26.5156,320.2031 Q26.7813,319.9375 26.9219,319.8594 Q27.0781,319.7813 27.2813,319.7813 Q27.6094,319.7813 27.8594,320.0469 Q28.125,320.2969 28.125,320.6406 Q28.125,320.9844 27.7813,321.3906 Q27.2813,321.9688 26.4844,322.2969 Q25.4063,322.75 24.1094,322.75 Q22.5938,322.75 21.3906,322.125 Q20.4063,321.625 19.7188,320.5625 Q19.0313,319.4844 19.0313,318.2031 L19.0313,317.0469 Q19.0313,315.7188 19.6406,314.5781 Q20.2656,313.4219 21.3594,312.8125 Q22.4531,312.1875 23.6875,312.1875 Q24.4219,312.1875 25.0625,312.3594 Q25.7188,312.5156 26.2656,312.875 Z " fill="#000000"/><text fill="#000000" font-family="sans-serif" font-size="14" lengthAdjust="spacing" textLength="137" x="37.5" y="322.7285">ApplicationRepository</text><line style="stroke:#181818;stroke-width:0.5;" x1="9.5" x2="176.5" y1="333" y2="333"/><line style="stroke:#181818;stroke-width:0.5;" x1="9.5" x2="176.5" y1="341" y2="341"/></g><!--class CandidateRepository--><g id="elem_CandidateRepository"><rect codeLine="31" fill="#F1F1F1" height="48" id="CandidateRepository" rx="2.5" ry="2.5" style="stroke:#181818;stroke-width:0.5;" width="165" x="227.5" y="301"/><ellipse cx="242.5" cy="317" fill="#ADD1B2" rx="11" ry="11" style="stroke:#181818;stroke-width:1.0;"/><path d="M245.2656,312.875 Q245.4219,312.6563 245.6094,312.5469 Q245.7969,312.4375 246.0156,312.4375 Q246.3906,312.4375 246.625,312.7031 Q246.8594,312.9531 246.8594,313.5625 L246.8594,315.0156 Q246.8594,315.625 246.625,315.8906 Q246.3906,316.1563 246.0156,316.1563 Q245.6719,316.1563 245.4688,315.9531 Q245.2656,315.7656 245.1563,315.25 Q245.1094,314.8906 244.9219,314.7031 Q244.5938,314.3281 243.9844,314.1094 Q243.375,313.8906 242.75,313.8906 Q241.9844,313.8906 241.3438,314.2188 Q240.7188,314.5469 240.2188,315.2969 Q239.7344,316.0469 239.7344,317.0781 L239.7344,318.1719 Q239.7344,319.4063 240.625,320.2344 Q241.5156,321.0469 243.1094,321.0469 Q244.0469,321.0469 244.7031,320.7969 Q245.0938,320.6406 245.5156,320.2031 Q245.7813,319.9375 245.9219,319.8594 Q246.0781,319.7813 246.2813,319.7813 Q246.6094,319.7813 246.8594,320.0469 Q247.125,320.2969 247.125,320.6406 Q247.125,320.9844 246.7813,321.3906 Q246.2813,321.9688 245.4844,322.2969 Q244.4063,322.75 243.1094,322.75 Q241.5938,322.75 240.3906,322.125 Q239.4063,321.625 238.7188,320.5625 Q238.0313,319.4844 238.0313,318.2031 L238.0313,317.0469 Q238.0313,315.7188 238.6406,314.5781 Q239.2656,313.4219 240.3594,312.8125 Q241.4531,312.1875 242.6875,312.1875 Q243.4219,312.1875 244.0625,312.3594 Q244.7188,312.5156 245.2656,312.875 Z " fill="#000000"/><text fill="#000000" font-family="sans-serif" font-size="14" lengthAdjust="spacing" textLength="133" x="256.5" y="322.7285">CandidateRepository</text><line style="stroke:#181818;stroke-width:0.5;" x1="228.5" x2="391.5" y1="333" y2="333"/><line style="stroke:#181818;stroke-width:0.5;" x1="228.5" x2="391.5" y1="341" y2="341"/></g><!--class VacancyRepository--><g id="elem_VacancyRepository"><rect codeLine="40" fill="#F1F1F1" height="48" id="VacancyRepository" rx="2.5" ry="2.5" style="stroke:#181818;stroke-width:0.5;" width="154" x="444" y="301"/><ellipse cx="459" cy="317" fill="#ADD1B2" rx="11" ry="11" style="stroke:#181818;stroke-width:1.0;"/><path d="M461.7656,312.875 Q461.9219,312.6563 462.1094,312.5469 Q462.2969,312.4375 462.5156,312.4375 Q462.8906,312.4375 463.125,312.7031 Q463.3594,312.9531 463.3594,313.5625 L463.3594,315.0156 Q463.3594,315.625 463.125,315.8906 Q462.8906,316.1563 462.5156,316.1563 Q462.1719,316.1563 461.9688,315.9531 Q461.7656,315.7656 461.6563,315.25 Q461.6094,314.8906 461.4219,314.7031 Q461.0938,314.3281 460.4844,314.1094 Q459.875,313.8906 459.25,313.8906 Q458.4844,313.8906 457.8438,314.2188 Q457.2188,314.5469 456.7188,315.2969 Q456.2344,316.0469 456.2344,317.0781 L456.2344,318.1719 Q456.2344,319.4063 457.125,320.2344 Q458.0156,321.0469 459.6094,321.0469 Q460.5469,321.0469 461.2031,320.7969 Q461.5938,320.6406 462.0156,320.2031 Q462.2813,319.9375 462.4219,319.8594 Q462.5781,319.7813 462.7813,319.7813 Q463.1094,319.7813 463.3594,320.0469 Q463.625,320.2969 463.625,320.6406 Q463.625,320.9844 463.2813,321.3906 Q462.7813,321.9688 461.9844,322.2969 Q460.9063,322.75 459.6094,322.75 Q458.0938,322.75 456.8906,322.125 Q455.9063,321.625 455.2188,320.5625 Q454.5313,319.4844 454.5313,318.2031 L454.5313,317.0469 Q454.5313,315.7188 455.1406,314.5781 Q455.7656,313.4219 456.8594,312.8125 Q457.9531,312.1875 459.1875,312.1875 Q459.9219,312.1875 460.5625,312.3594 Q461.2188,312.5156 461.7656,312.875 Z " fill="#000000"/><text fill="#000000" font-family="sans-serif" font-size="14" lengthAdjust="spacing" textLength="122" x="473" y="322.7285">VacancyRepository</text><line style="stroke:#181818;stroke-width:0.5;" x1="445" x2="597" y1="333" y2="333"/><line style="stroke:#181818;stroke-width:0.5;" x1="445" x2="597" y1="341" y2="341"/></g><!--class ApplicationService--><g id="elem_ApplicationService"><rect codeLine="51" fill="#F1F1F1" height="48" id="ApplicationService" rx="2.5" ry="2.5" style="stroke:#181818;stroke-width:0.5;" width="148" x="18" y="203"/><ellipse cx="33" cy="219" fill="#ADD1B2" rx="11" ry="11" style="stroke:#181818;stroke-width:1.0;"/><path d="M35.7656,214.875 Q35.9219,214.6563 36.1094,214.5469 Q36.2969,214.4375 36.5156,214.4375 Q36.8906,214.4375 37.125,214.7031 Q37.3594,214.9531 37.3594,215.5625 L37.3594,217.0156 Q37.3594,217.625 37.125,217.8906 Q36.8906,218.1563 36.5156,218.1563 Q36.1719,218.1563 35.9688,217.9531 Q35.7656,217.7656 35.6563,217.25 Q35.6094,216.8906 35.4219,216.7031 Q35.0938,216.3281 34.4844,216.1094 Q33.875,215.8906 33.25,215.8906 Q32.4844,215.8906 31.8438,216.2188 Q31.2188,216.5469 30.7188,217.2969 Q30.2344,218.0469 30.2344,219.0781 L30.2344,220.1719 Q30.2344,221.4063 31.125,222.2344 Q32.0156,223.0469 33.6094,223.0469 Q34.5469,223.0469 35.2031,222.7969 Q35.5938,222.6406 36.0156,222.2031 Q36.2813,221.9375 36.4219,221.8594 Q36.5781,221.7813 36.7813,221.7813 Q37.1094,221.7813 37.3594,222.0469 Q37.625,222.2969 37.625,222.6406 Q37.625,222.9844 37.2813,223.3906 Q36.7813,223.9688 35.9844,224.2969 Q34.9063,224.75 33.6094,224.75 Q32.0938,224.75 30.8906,224.125 Q29.9063,223.625 29.2188,222.5625 Q28.5313,221.4844 28.5313,220.2031 L28.5313,219.0469 Q28.5313,217.7188 29.1406,216.5781 Q29.7656,215.4219 30.8594,214.8125 Q31.9531,214.1875 33.1875,214.1875 Q33.9219,214.1875 34.5625,214.3594 Q35.2188,214.5156 35.7656,214.875 Z " fill="#000000"/><text fill="#000000" font-family="sans-serif" font-size="14" lengthAdjust="spacing" textLength="116" x="47" y="224.7285">ApplicationService</text><line style="stroke:#181818;stroke-width:0.5;" x1="19" x2="165" y1="235" y2="235"/><line style="stroke:#181818;stroke-width:0.5;" x1="19" x2="165" y1="243" y2="243"/></g><!--class CandidateService--><g id="elem_CandidateService"><rect codeLine="64" fill="#F1F1F1" height="48" id="CandidateService" rx="2.5" ry="2.5" style="stroke:#181818;stroke-width:0.5;" width="144" x="238" y="203"/><ellipse cx="253" cy="219" fill="#ADD1B2" rx="11" ry="11" style="stroke:#181818;stroke-width:1.0;"/><path d="M255.7656,214.875 Q255.9219,214.6563 256.1094,214.5469 Q256.2969,214.4375 256.5156,214.4375 Q256.8906,214.4375 257.125,214.7031 Q257.3594,214.9531 257.3594,215.5625 L257.3594,217.0156 Q257.3594,217.625 257.125,217.8906 Q256.8906,218.1563 256.5156,218.1563 Q256.1719,218.1563 255.9688,217.9531 Q255.7656,217.7656 255.6563,217.25 Q255.6094,216.8906 255.4219,216.7031 Q255.0938,216.3281 254.4844,216.1094 Q253.875,215.8906 253.25,215.8906 Q252.4844,215.8906 251.8438,216.2188 Q251.2188,216.5469 250.7188,217.2969 Q250.2344,218.0469 250.2344,219.0781 L250.2344,220.1719 Q250.2344,221.4063 251.125,222.2344 Q252.0156,223.0469 253.6094,223.0469 Q254.5469,223.0469 255.2031,222.7969 Q255.5938,222.6406 256.0156,222.2031 Q256.2813,221.9375 256.4219,221.8594 Q256.5781,221.7813 256.7813,221.7813 Q257.1094,221.7813 257.3594,222.0469 Q257.625,222.2969 257.625,222.6406 Q257.625,222.9844 257.2813,223.3906 Q256.7813,223.9688 255.9844,224.2969 Q254.9063,224.75 253.6094,224.75 Q252.0938,224.75 250.8906,224.125 Q249.9063,223.625 249.2188,222.5625 Q248.5313,221.4844 248.5313,220.2031 L248.5313,219.0469 Q248.5313,217.7188 249.1406,216.5781 Q249.7656,215.4219 250.8594,214.8125 Q251.9531,214.1875 253.1875,214.1875 Q253.9219,214.1875 254.5625,214.3594 Q255.2188,214.5156 255.7656,214.875 Z " fill="#000000"/><text fill="#000000" font-family="sans-serif" font-size="14" lengthAdjust="spacing" textLength="112" x="267" y="224.7285">CandidateService</text><line style="stroke:#181818;stroke-width:0.5;" x1="239" x2="381" y1="235" y2="235"/><line style="stroke:#181818;stroke-width:0.5;" x1="239" x2="381" y1="243" y2="243"/></g><!--class VacancyService--><g id="elem_VacancyService"><rect codeLine="72" fill="#F1F1F1" height="48" id="VacancyService" rx="2.5" ry="2.5" style="stroke:#181818;stroke-width:0.5;" width="133" x="455.5" y="203"/><ellipse cx="470.5" cy="219" fill="#ADD1B2" rx="11" ry="11" style="stroke:#181818;stroke-width:1.0;"/><path d="M473.2656,214.875 Q473.4219,214.6563 473.6094,214.5469 Q473.7969,214.4375 474.0156,214.4375 Q474.3906,214.4375 474.625,214.7031 Q474.8594,214.9531 474.8594,215.5625 L474.8594,217.0156 Q474.8594,217.625 474.625,217.8906 Q474.3906,218.1563 474.0156,218.1563 Q473.6719,218.1563 473.4688,217.9531 Q473.2656,217.7656 473.1563,217.25 Q473.1094,216.8906 472.9219,216.7031 Q472.5938,216.3281 471.9844,216.1094 Q471.375,215.8906 470.75,215.8906 Q469.9844,215.8906 469.3438,216.2188 Q468.7188,216.5469 468.2188,217.2969 Q467.7344,218.0469 467.7344,219.0781 L467.7344,220.1719 Q467.7344,221.4063 468.625,222.2344 Q469.5156,223.0469 471.1094,223.0469 Q472.0469,223.0469 472.7031,222.7969 Q473.0938,222.6406 473.5156,222.2031 Q473.7813,221.9375 473.9219,221.8594 Q474.0781,221.7813 474.2813,221.7813 Q474.6094,221.7813 474.8594,222.0469 Q475.125,222.2969 475.125,222.6406 Q475.125,222.9844 474.7813,223.3906 Q474.2813,223.9688 473.4844,224.2969 Q472.4063,224.75 471.1094,224.75 Q469.5938,224.75 468.3906,224.125 Q467.4063,223.625 466.7188,222.5625 Q466.0313,221.4844 466.0313,220.2031 L466.0313,219.0469 Q466.0313,217.7188 466.6406,216.5781 Q467.2656,215.4219 468.3594,214.8125 Q469.4531,214.1875 470.6875,214.1875 Q471.4219,214.1875 472.0625,214.3594 Q472.7188,214.5156 473.2656,214.875 Z " fill="#000000"/><text fill="#000000" font-family="sans-serif" font-size="14" lengthAdjust="spacing" textLength="101" x="484.5" y="224.7285">VacancyService</text><line style="stroke:#181818;stroke-width:0.5;" x1="456.5" x2="587.5" y1="235" y2="235"/><line style="stroke:#181818;stroke-width:0.5;" x1="456.5" x2="587.5" y1="243" y2="243"/></g><!--class ApplicationsController--><g id="elem_ApplicationsController"><rect codeLine="82" fill="#F1F1F1" height="48" id="ApplicationsController" rx="2.5" ry="2.5" style="stroke:#181818;stroke-width:0.5;" width="170" x="7" y="105"/><ellipse cx="22" cy="121" fill="#ADD1B2" rx="11" ry="11" style="stroke:#181818;stroke-width:1.0;"/><path d="M24.7656,116.875 Q24.9219,116.6563 25.1094,116.5469 Q25.2969,116.4375 25.5156,116.4375 Q25.8906,116.4375 26.125,116.7031 Q26.3594,116.9531 26.3594,117.5625 L26.3594,119.0156 Q26.3594,119.625 26.125,119.8906 Q25.8906,120.1563 25.5156,120.1563 Q25.1719,120.1563 24.9688,119.9531 Q24.7656,119.7656 24.6563,119.25 Q24.6094,118.8906 24.4219,118.7031 Q24.0938,118.3281 23.4844,118.1094 Q22.875,117.8906 22.25,117.8906 Q21.4844,117.8906 20.8438,118.2188 Q20.2188,118.5469 19.7188,119.2969 Q19.2344,120.0469 19.2344,121.0781 L19.2344,122.1719 Q19.2344,123.4063 20.125,124.2344 Q21.0156,125.0469 22.6094,125.0469 Q23.5469,125.0469 24.2031,124.7969 Q24.5938,124.6406 25.0156,124.2031 Q25.2813,123.9375 25.4219,123.8594 Q25.5781,123.7813 25.7813,123.7813 Q26.1094,123.7813 26.3594,124.0469 Q26.625,124.2969 26.625,124.6406 Q26.625,124.9844 26.2813,125.3906 Q25.7813,125.9688 24.9844,126.2969 Q23.9063,126.75 22.6094,126.75 Q21.0938,126.75 19.8906,126.125 Q18.9063,125.625 18.2188,124.5625 Q17.5313,123.4844 17.5313,122.2031 L17.5313,121.0469 Q17.5313,119.7188 18.1406,118.5781 Q18.7656,117.4219 19.8594,116.8125 Q20.9531,116.1875 22.1875,116.1875 Q22.9219,116.1875 23.5625,116.3594 Q24.2188,116.5156 24.7656,116.875 Z " fill="#000000"/><text fill="#000000" font-family="sans-serif" font-size="14" lengthAdjust="spacing" textLength="138" x="36" y="126.7285">ApplicationsController</text><line style="stroke:#181818;stroke-width:0.5;" x1="8" x2="176" y1="137" y2="137"/><line style="stroke:#181818;stroke-width:0.5;" x1="8" x2="176" y1="145" y2="145"/></g><!--class ControllerBase--><g id="elem_ControllerBase"><rect fill="#F1F1F1" height="48" id="ControllerBase" rx="2.5" ry="2.5" style="stroke:#181818;stroke-width:0.5;" width="126" x="247" y="7"/><ellipse cx="262" cy="23" fill="#ADD1B2" rx="11" ry="11" style="stroke:#181818;stroke-width:1.0;"/><path d="M264.7656,18.875 Q264.9219,18.6563 265.1094,18.5469 Q265.2969,18.4375 265.5156,18.4375 Q265.8906,18.4375 266.125,18.7031 Q266.3594,18.9531 266.3594,19.5625 L266.3594,21.0156 Q266.3594,21.625 266.125,21.8906 Q265.8906,22.1563 265.5156,22.1563 Q265.1719,22.1563 264.9688,21.9531 Q264.7656,21.7656 264.6563,21.25 Q264.6094,20.8906 264.4219,20.7031 Q264.0938,20.3281 263.4844,20.1094 Q262.875,19.8906 262.25,19.8906 Q261.4844,19.8906 260.8438,20.2188 Q260.2188,20.5469 259.7188,21.2969 Q259.2344,22.0469 259.2344,23.0781 L259.2344,24.1719 Q259.2344,25.4063 260.125,26.2344 Q261.0156,27.0469 262.6094,27.0469 Q263.5469,27.0469 264.2031,26.7969 Q264.5938,26.6406 265.0156,26.2031 Q265.2813,25.9375 265.4219,25.8594 Q265.5781,25.7813 265.7813,25.7813 Q266.1094,25.7813 266.3594,26.0469 Q266.625,26.2969 266.625,26.6406 Q266.625,26.9844 266.2813,27.3906 Q265.7813,27.9688 264.9844,28.2969 Q263.9063,28.75 262.6094,28.75 Q261.0938,28.75 259.8906,28.125 Q258.9063,27.625 258.2188,26.5625 Q257.5313,25.4844 257.5313,24.2031 L257.5313,23.0469 Q257.5313,21.7188 258.1406,20.5781 Q258.7656,19.4219 259.8594,18.8125 Q260.9531,18.1875 262.1875,18.1875 Q262.9219,18.1875 263.5625,18.3594 Q264.2188,18.5156 264.7656,18.875 Z " fill="#000000"/><text fill="#000000" font-family="sans-serif" font-size="14" lengthAdjust="spacing" textLength="94" x="276" y="28.7285">ControllerBase</text><line style="stroke:#181818;stroke-width:0.5;" x1="248" x2="372" y1="39" y2="39"/><line style="stroke:#181818;stroke-width:0.5;" x1="248" x2="372" y1="47" y2="47"/></g><!--class CandidatesController--><g id="elem_CandidatesController"><rect codeLine="96" fill="#F1F1F1" height="48" id="CandidatesController" rx="2.5" ry="2.5" style="stroke:#181818;stroke-width:0.5;" width="166" x="227" y="105"/><ellipse cx="242" cy="121" fill="#ADD1B2" rx="11" ry="11" style="stroke:#181818;stroke-width:1.0;"/><path d="M244.7656,116.875 Q244.9219,116.6563 245.1094,116.5469 Q245.2969,116.4375 245.5156,116.4375 Q245.8906,116.4375 246.125,116.7031 Q246.3594,116.9531 246.3594,117.5625 L246.3594,119.0156 Q246.3594,119.625 246.125,119.8906 Q245.8906,120.1563 245.5156,120.1563 Q245.1719,120.1563 244.9688,119.9531 Q244.7656,119.7656 244.6563,119.25 Q244.6094,118.8906 244.4219,118.7031 Q244.0938,118.3281 243.4844,118.1094 Q242.875,117.8906 242.25,117.8906 Q241.4844,117.8906 240.8438,118.2188 Q240.2188,118.5469 239.7188,119.2969 Q239.2344,120.0469 239.2344,121.0781 L239.2344,122.1719 Q239.2344,123.4063 240.125,124.2344 Q241.0156,125.0469 242.6094,125.0469 Q243.5469,125.0469 244.2031,124.7969 Q244.5938,124.6406 245.0156,124.2031 Q245.2813,123.9375 245.4219,123.8594 Q245.5781,123.7813 245.7813,123.7813 Q246.1094,123.7813 246.3594,124.0469 Q246.625,124.2969 246.625,124.6406 Q246.625,124.9844 246.2813,125.3906 Q245.7813,125.9688 244.9844,126.2969 Q243.9063,126.75 242.6094,126.75 Q241.0938,126.75 239.8906,126.125 Q238.9063,125.625 238.2188,124.5625 Q237.5313,123.4844 237.5313,122.2031 L237.5313,121.0469 Q237.5313,119.7188 238.1406,118.5781 Q238.7656,117.4219 239.8594,116.8125 Q240.9531,116.1875 242.1875,116.1875 Q242.9219,116.1875 243.5625,116.3594 Q244.2188,116.5156 244.7656,116.875 Z " fill="#000000"/><text fill="#000000" font-family="sans-serif" font-size="14" lengthAdjust="spacing" textLength="134" x="256" y="126.7285">CandidatesController</text><line style="stroke:#181818;stroke-width:0.5;" x1="228" x2="392" y1="137" y2="137"/><line style="stroke:#181818;stroke-width:0.5;" x1="228" x2="392" y1="145" y2="145"/></g><!--class VacanciesController--><g id="elem_VacanciesController"><rect codeLine="105" fill="#F1F1F1" height="48" id="VacanciesController" rx="2.5" ry="2.5" style="stroke:#181818;stroke-width:0.5;" width="159" x="443.5" y="105"/><ellipse cx="458.5" cy="121" fill="#ADD1B2" rx="11" ry="11" style="stroke:#181818;stroke-width:1.0;"/><path d="M461.2656,116.875 Q461.4219,116.6563 461.6094,116.5469 Q461.7969,116.4375 462.0156,116.4375 Q462.3906,116.4375 462.625,116.7031 Q462.8594,116.9531 462.8594,117.5625 L462.8594,119.0156 Q462.8594,119.625 462.625,119.8906 Q462.3906,120.1563 462.0156,120.1563 Q461.6719,120.1563 461.4688,119.9531 Q461.2656,119.7656 461.1563,119.25 Q461.1094,118.8906 460.9219,118.7031 Q460.5938,118.3281 459.9844,118.1094 Q459.375,117.8906 458.75,117.8906 Q457.9844,117.8906 457.3438,118.2188 Q456.7188,118.5469 456.2188,119.2969 Q455.7344,120.0469 455.7344,121.0781 L455.7344,122.1719 Q455.7344,123.4063 456.625,124.2344 Q457.5156,125.0469 459.1094,125.0469 Q460.0469,125.0469 460.7031,124.7969 Q461.0938,124.6406 461.5156,124.2031 Q461.7813,123.9375 461.9219,123.8594 Q462.0781,123.7813 462.2813,123.7813 Q462.6094,123.7813 462.8594,124.0469 Q463.125,124.2969 463.125,124.6406 Q463.125,124.9844 462.7813,125.3906 Q462.2813,125.9688 461.4844,126.2969 Q460.4063,126.75 459.1094,126.75 Q457.5938,126.75 456.3906,126.125 Q455.4063,125.625 454.7188,124.5625 Q454.0313,123.4844 454.0313,122.2031 L454.0313,121.0469 Q454.0313,119.7188 454.6406,118.5781 Q455.2656,117.4219 456.3594,116.8125 Q457.4531,116.1875 458.6875,116.1875 Q459.4219,116.1875 460.0625,116.3594 Q460.7188,116.5156 461.2656,116.875 Z " fill="#000000"/><text fill="#000000" font-family="sans-serif" font-size="14" lengthAdjust="spacing" textLength="127" x="472.5" y="126.7285">VacanciesController</text><line style="stroke:#181818;stroke-width:0.5;" x1="444.5" x2="601.5" y1="137" y2="137"/><line style="stroke:#181818;stroke-width:0.5;" x1="444.5" x2="601.5" y1="145" y2="145"/></g><!--reverse link ControllerBase to ApplicationsController--><g id="link_ControllerBase_ApplicationsController"><path codeLine="94" d="M226.95,31 C226.95,31 92,31 92,31 C92,31 92,75.75 92,104.78 " fill="none" id="ControllerBase-backto-ApplicationsController" style="stroke:#181818;stroke-width:1.0;"/><polygon fill="none" points="226.95,24,246.95,31,226.95,38,226.95,24" style="stroke:#181818;stroke-width:1.0;"/></g><!--reverse link ControllerBase to CandidatesController--><g id="link_ControllerBase_CandidatesController"><path codeLine="103" d="M310,75.22 C310,75.22 310,104.71 310,104.71 " fill="none" id="ControllerBase-backto-CandidatesController" style="stroke:#181818;stroke-width:1.0;"/><polygon fill="none" points="303,75.22,310,55.22,317,75.22,303,75.22" style="stroke:#181818;stroke-width:1.0;"/></g><!--reverse link ControllerBase to VacanciesController--><g id="link_ControllerBase_VacanciesController"><path codeLine="112" d="M393.04,31 C393.04,31 523,31 523,31 C523,31 523,75.75 523,104.78 " fill="none" id="ControllerBase-backto-VacanciesController" style="stroke:#181818;stroke-width:1.0;"/><polygon fill="none" points="393.04,38,373.04,31,393.04,24,393.04,38" style="stroke:#181818;stroke-width:1.0;"/></g><!--link ApplicationsController to ApplicationService--><g id="link_ApplicationsController_ApplicationService"><path codeLine="116" d="M92,153.22 C92,153.22 92,197.71 92,197.71 " fill="none" id="ApplicationsController-to-ApplicationService" style="stroke:#181818;stroke-width:1.0;"/><polygon fill="#181818" points="92,202.71,96,193.71,92,197.71,88,193.71,92,202.71" style="stroke:#181818;stroke-width:1.0;"/></g><!--link CandidatesController to CandidateService--><g id="link_CandidatesController_CandidateService"><path codeLine="117" d="M310,153.22 C310,153.22 310,197.71 310,197.71 " fill="none" id="CandidatesController-to-CandidateService" style="stroke:#181818;stroke-width:1.0;"/><polygon fill="#181818" points="310,202.71,314,193.71,310,197.71,306,193.71,310,202.71" style="stroke:#181818;stroke-width:1.0;"/></g><!--link VacanciesController to VacancyService--><g id="link_VacanciesController_VacancyService"><path codeLine="118" d="M522,153.22 C522,153.22 522,197.71 522,197.71 " fill="none" id="VacanciesController-to-VacancyService" style="stroke:#181818;stroke-width:1.0;"/><polygon fill="#181818" points="522,202.71,526,193.71,522,197.71,518,193.71,522,202.71" style="stroke:#181818;stroke-width:1.0;"/></g><!--link ApplicationService to ApplicationRepository--><g id="link_ApplicationService_ApplicationRepository"><path codeLine="120" d="M92,251.22 C92,251.22 92,295.71 92,295.71 " fill="none" id="ApplicationService-to-ApplicationRepository" style="stroke:#181818;stroke-width:1.0;"/><polygon fill="#181818" points="92,300.71,96,291.71,92,295.71,88,291.71,92,300.71" style="stroke:#181818;stroke-width:1.0;"/></g><!--link CandidateService to CandidateRepository--><g id="link_CandidateService_CandidateRepository"><path codeLine="121" d="M310,251.22 C310,251.22 310,295.71 310,295.71 " fill="none" id="CandidateService-to-CandidateRepository" style="stroke:#181818;stroke-width:1.0;"/><polygon fill="#181818" points="310,300.71,314,291.71,310,295.71,306,291.71,310,300.71" style="stroke:#181818;stroke-width:1.0;"/></g><!--link VacancyService to VacancyRepository--><g id="link_VacancyService_VacancyRepository"><path codeLine="122" d="M522,251.22 C522,251.22 522,295.71 522,295.71 " fill="none" id="VacancyService-to-VacancyRepository" style="stroke:#181818;stroke-width:1.0;"/><polygon fill="#181818" points="522,300.71,526,291.71,522,295.71,518,291.71,522,300.71" style="stroke:#181818;stroke-width:1.0;"/></g><!--link ApplicationRepository to MilitaryRecruitmentDbContext--><g id="link_ApplicationRepository_MilitaryRecruitmentDbContext"><path codeLine="124" d="M177.7,325 C198.03,325 214,325 214,325 C214,325 214,393.78 214,393.78 " fill="none" id="ApplicationRepository-to-MilitaryRecruitmentDbContext" style="stroke:#181818;stroke-width:1.0;"/><polygon fill="#181818" points="214,398.78,218,389.78,214,393.78,210,389.78,214,398.78" style="stroke:#181818;stroke-width:1.0;"/></g><!--link CandidateRepository to MilitaryRecruitmentDbContext--><g id="link_CandidateRepository_MilitaryRecruitmentDbContext"><path codeLine="125" d="M310,349.22 C310,349.22 310,393.71 310,393.71 " fill="none" id="CandidateRepository-to-MilitaryRecruitmentDbContext" style="stroke:#181818;stroke-width:1.0;"/><polygon fill="#181818" points="310,398.71,314,389.71,310,393.71,306,389.71,310,398.71" style="stroke:#181818;stroke-width:1.0;"/></g><!--link VacancyRepository to MilitaryRecruitmentDbContext--><g id="link_VacancyRepository_MilitaryRecruitmentDbContext"><path codeLine="126" d="M443.97,325 C423.03,325 406,325 406,325 C406,325 406,393.78 406,393.78 " fill="none" id="VacancyRepository-to-MilitaryRecruitmentDbContext" style="stroke:#181818;stroke-width:1.0;"/><polygon fill="#181818" points="406,398.78,410,389.78,406,393.78,402,389.78,406,398.78" style="stroke:#181818;stroke-width:1.0;"/></g><!--SRC=[jLXTRvim57tdLrXvQQAbKlUm5nH5IZzKHLfLgLMtrn7m4gkkZMnJZMtzxxC3s0OkXcPRNa2-vrxRnuTp8MVeXYKxYj4EAuK5ead92nN9PyBoH2GlY1A6LPbZn8KwS2_0U8Obpj6d2szG9EovDvZIHCgDKeBi2eMtAMUFv2T65r5qXhOifKM6qVNkYZE5VwZeY4PtX1ALYF81fw8WwWKpPI7eLuJqxmnzG5-ID64fmHB5kiGZLgjgf5oZrMgFrTfSfRdQbAk4PIHBb9TZXuQpDdbEIPeemfdBymQ7CqCxcVFyM36s8_VLm2gKjLv4RvgwsJRJeqILDl3jumpDpAgU91Rh6LhzFZyFpX_vH_20Sow9uaBJMP-2jq4RBJtwmVWyhOh7ePaNhaQMpHDN9_PgBZJJhvna5lkKcrEQ3B_65By3VelLPRdDvYIBRmkIcRW7zs4RIkSclBrXnGiMvW5gYQ5TqifBrqxTlPraMfLQsBh6QtFtpWhUEZOiS_MwQrgYVpo3lj_AgmENc5sM6xhN4bE7bz5vbuZqi-8TvpIuehUeLgzT3QXT87g2SkqUObjlIBLJeBLYfq01jLhmc5QTuJcswjC2kUh5Jc2gFjkuhZN4qXYiPcWC1h1JGyUuQHg8OSPpnqSiNaaAEMCTWMsn3iuBHjJzzwzSFCTFzdQ94iX0Oz1MboZjApO6L6mV8m_MEy0bedo_noBUVZvUL_qrhztvFUXERyZQI4dsp1ood4EK6uZNA4CUgT7NYhVymui6VBXAT8-nm7htNjotUmtqoQomUZ1SifAONz9RIMlB3mMxIvwTe_NssqGqWGKDRLYUt2R2HCgJ6iVOuVo7Jj9CsNVl_lFL3GqzNHCVc4L7mkuDSTWu0OPiRD2MGUdQg6FFoDOEjqGBMA7BxwgqQ-rz8jk18Heds4cNGljUFcIl07zrPC2sGUxgM2DimrizDCPQambmvfc-QMI2Kue5uFlIHM7lzm2-ATLintt7NOnwwIQjce9naudM2UUSR9jmkQ1bJbdr5F-RLYPeTvFu-ojt0sVGVSArpawxW1EE3RVJRTlGjyZ9wpAHkFhQW-NNyrHOkr3OxRhHRTTzn-npYFD1lmmfzbrk6T8gQ9jJ68P8QXij6Q0NY3OQRRXj6_A8gmuHEs2a8Led6cc8KC1Hfz09a7AqOFt9W0IcbP8F99VHWFMUdw-15-u8bBh1TkKRGOTcWEspY2BWbRypj-k7KU_jfJMr1-pqPczY3nJ1VyGOSF3l7UWBU3If_o4ubl87]--></g></svg>